<svg width="1717" height="1576" viewBox="0 0 1717 1576" fill="none" xmlns="http://www.w3.org/2000/svg">
<g filter="url(#filter0_f_51_21)">
<path d="M256 667.966V1105.6L364.366 1022.29L438.855 1064.37C438.855 1064.37 431.276 1080.56 431.276 1109.45C431.276 1138.35 461.172 1270.45 662.745 1270.45H1185.4C1185.4 1270.45 1405.04 1267.63 1405.04 1101.9C1405.04 1101.9 1404.39 1063.37 1391.64 1038.14C1391.64 1038.14 1461 983.024 1461 874.263C1461 765.502 1351.29 646.406 1206.79 646.406H1113.13V531.941C1113.13 490.044 1078.03 456.075 1034.73 456.075H965.067V364.614C965.067 354.057 960.933 343.87 953.468 336.164L888.51 268.708C873.275 252.89 847.782 251.667 831.016 266.003L827.227 269.226C808.853 284.896 808.585 312.53 826.614 328.57L881.62 377.542C886.022 381.469 888.548 387.026 888.548 392.804V457.816H791.437C748.144 457.816 713.043 491.785 713.043 533.682V645.147H601.538C584.619 645.147 568.006 649.259 553.154 657.038L361.725 757.76L256 667.966Z" fill="#6705FF"/>
<path opacity="0.3" d="M256 717.308V1154.94L364.366 1071.63L438.855 1113.71C438.855 1113.71 431.276 1129.9 431.276 1158.8C431.276 1187.73 461.172 1319.79 662.745 1319.79H1185.4C1185.4 1319.79 1405.04 1316.97 1405.04 1151.24C1405.04 1151.24 1404.39 1112.71 1391.64 1087.49C1391.64 1087.49 1461 1032.37 1461 923.605C1461 814.844 1351.29 695.749 1206.79 695.749H1113.13V581.283C1113.13 539.387 1078.03 505.418 1034.73 505.418H965.067V413.956C965.067 403.399 960.933 393.212 953.468 385.507L888.51 318.05C873.275 302.232 847.782 301.01 831.016 315.346L827.227 318.569C808.853 334.238 808.585 361.873 826.614 377.913L881.658 426.811C886.06 430.737 888.587 436.294 888.587 442.073V507.084H791.475C748.182 507.084 713.081 541.054 713.081 582.95V694.415H601.538C584.619 694.415 568.006 698.527 553.154 706.306L361.725 807.028L256 717.308Z" fill="#0CE9E9"/>
<path d="M1332.12 1096.71C1332.12 1126.23 1310.57 1152.91 1281.36 1172.24C1252.19 1191.58 1215.41 1203.55 1184.94 1203.55H653.137C592.16 1203.55 503.278 1155.72 503.278 1096.71H1332.12Z" fill="#BF14DB"/>
<path d="M1314.89 1096.71C1306.13 1108.01 1294.53 1118.2 1281.36 1126.9C1252.19 1146.24 1215.41 1158.2 1184.94 1158.2H653.137C608.925 1158.2 550.015 1133.05 520.962 1096.71H1314.89Z" fill="#60E5ED"/>
<path d="M1386.05 871.114V872.078C1386.05 957.167 1314.78 1026.14 1226.85 1026.14H572.255C555.489 1026.14 538.953 1022.36 523.948 1015.14L345.188 928.606V879.56C365.782 894.489 411.945 918.568 495.047 918.568H1269.68C1269.68 918.568 1342.64 925.606 1386.05 871.114Z" fill="#23EB5B"/>
<path d="M1386.05 871.115C1342.64 925.607 1269.68 918.568 1269.68 918.568H495.047C411.945 918.568 365.782 894.49 345.188 879.561V844.036L576.197 729.497C591.432 721.94 608.313 718.013 625.423 718.013H1226.85C1270.79 718.013 1310.6 735.275 1339.43 763.132C1363.31 786.248 1379.62 816.587 1384.48 850.519C1385.48 857.261 1386.01 864.114 1386.05 871.115Z" fill="#60E5ED"/>
<path d="M1038.68 539.128V645.073H787.57V539.128C787.57 532.311 793.273 526.829 800.278 526.829H1025.97C1032.97 526.829 1038.68 532.311 1038.68 539.128Z" fill="#0CE9E9"/>
<path d="M743.435 931.644C777.429 931.644 804.987 904.975 804.987 872.078C804.987 839.18 777.429 812.511 743.435 812.511C709.441 812.511 681.884 839.18 681.884 872.078C681.884 904.975 709.441 931.644 743.435 931.644Z" fill="#38FF70"/>
<path d="M900.682 931.644C934.676 931.644 962.234 904.975 962.234 872.078C962.234 839.18 934.676 812.511 900.682 812.511C866.688 812.511 839.131 839.18 839.131 872.078C839.131 904.975 866.688 931.644 900.682 931.644Z" fill="#12E928"/>
<path d="M1057.93 931.644C1091.92 931.644 1119.48 904.975 1119.48 872.078C1119.48 839.18 1091.92 812.511 1057.93 812.511C1023.94 812.511 996.378 839.18 996.378 872.078C996.378 904.975 1023.94 931.644 1057.93 931.644Z" fill="#12E928"/>
<path d="M1215.18 931.644C1249.17 931.644 1276.73 904.975 1276.73 872.078C1276.73 839.18 1249.17 812.511 1215.18 812.511C1181.18 812.511 1153.62 839.18 1153.62 872.078C1153.62 904.975 1181.18 931.644 1215.18 931.644Z" fill="#12E928"/>
<path d="M787.57 557.872L786.919 539.016C786.766 535.719 788.029 532.311 790.364 529.755C792.699 527.199 796.144 525.532 799.781 525.273C812.872 524.643 825.772 524.273 838.786 523.977C864.739 523.31 890.692 523.125 916.683 523.05C942.635 523.162 968.588 523.31 994.579 524.014L1014.06 524.569L1023.79 524.903L1026.23 525.014C1027.15 525.051 1028.07 525.199 1028.95 525.421C1030.75 525.866 1032.44 526.644 1033.89 527.681C1036.8 529.755 1038.79 532.904 1039.36 536.275C1039.67 537.979 1039.52 539.646 1039.48 541.165L1039.36 545.869L1038.68 564.725L1037.99 545.869L1037.87 541.165C1037.83 539.572 1037.83 538.053 1037.41 536.683C1036.65 533.867 1034.73 531.459 1032.24 530.052C1031.02 529.348 1029.64 528.866 1028.26 528.644C1026.92 528.422 1025.47 528.57 1023.79 528.607L1014.06 528.94L994.579 529.496C968.626 530.2 942.674 530.348 916.683 530.459C890.73 530.385 864.777 530.237 838.786 529.533C825.81 529.237 812.757 528.829 799.896 528.274C794.116 527.977 788.412 532.867 788.182 538.979L787.57 557.872Z" fill="#12E928"/>
<path d="M1386.05 871.115C1385.59 851.296 1381.27 831.663 1373.3 813.549C1365.34 795.434 1353.67 778.95 1339.31 765.169C1325.04 751.315 1307.96 740.202 1289.36 732.682C1270.8 725.125 1250.7 721.161 1230.64 721.05L985.048 721.68C903.171 721.31 821.294 721.495 739.378 720.569L677.941 720.013L647.242 719.643L631.893 719.42C626.763 719.309 621.749 719.309 616.658 719.68C611.605 720.013 606.514 720.532 601.576 721.495C596.6 722.31 591.968 724.31 587.298 726.31C577.959 730.311 568.734 734.608 559.508 738.905L504.388 765.132C522.417 755.76 540.561 746.536 558.934 737.757C568.121 733.349 577.27 728.978 586.609 724.829C591.241 722.791 596.064 720.68 601.155 719.643C606.208 718.494 611.337 717.827 616.466 717.346C621.557 716.827 626.802 716.642 631.893 716.642L647.242 716.42L677.941 716.049L739.34 715.494C821.217 714.53 903.133 714.716 985.01 714.382C1025.97 714.234 1066.89 714.531 1107.84 714.605C1148.8 714.79 1189.68 714.642 1230.76 715.16C1251.62 715.679 1272.33 720.124 1291.35 728.274C1310.38 736.386 1327.72 748.129 1342.07 762.576C1370.85 791.434 1387.16 831.404 1386.05 871.115Z" fill="#F2F2F2"/>
<path d="M503.278 1096.71C537.805 1095.86 572.332 1095.53 606.897 1094.9L710.516 1093.86C779.57 1093.27 848.663 1093.3 917.717 1093.01C986.771 1093.3 1055.86 1093.27 1124.92 1093.86L1228.54 1094.9C1263.06 1095.53 1297.59 1095.86 1332.16 1096.71C1297.63 1097.56 1263.1 1097.9 1228.54 1098.53L1124.92 1099.56C1055.86 1100.16 986.771 1100.12 917.717 1100.42C848.663 1100.12 779.57 1100.16 710.516 1099.56L606.897 1098.53C572.37 1097.9 537.843 1097.53 503.278 1096.71Z" fill="#12E928"/>
</g>
<defs>
<filter id="filter0_f_51_21" x="0" y="0" width="1717" height="1575.79" filterUnits="userSpaceOnUse" color-interpolation-filters="sRGB">
<feFlood flood-opacity="0" result="BackgroundImageFix"/>
<feBlend mode="normal" in="SourceGraphic" in2="BackgroundImageFix" result="shape"/>
<feGaussianBlur stdDeviation="128" result="effect1_foregroundBlur_51_21"/>
</filter>
</defs>
</svg>
