<svg width="32" height="32" viewBox="0 0 32 32" fill="none" xmlns="http://www.w3.org/2000/svg">
<g clip-path="url(#clip0_31_24)">
<path d="M12.5625 4.31248C12.8307 4.59544 12.9887 4.94488 13.1641 5.28904C13.2304 5.41788 13.2969 5.54671 13.3633 5.67552C13.4131 5.77243 13.4131 5.77243 13.4639 5.87129C13.6121 6.15864 13.763 6.44458 13.9141 6.73045C13.9644 6.82573 14.0147 6.92103 14.0649 7.01634C14.0857 7.05563 14.1065 7.09492 14.1278 7.1354C14.1908 7.25623 14.2516 7.37814 14.3125 7.49998C15.4262 7.49998 16.54 7.49998 17.6875 7.49998C17.9144 7.04623 18.1413 6.59248 18.375 6.12498C19.3102 4.30955 19.3102 4.30955 19.7371 4.14402C22.0799 3.82059 24.8709 5.30844 26.8125 6.43748C26.8809 6.47691 26.8809 6.47691 26.9506 6.51713C27.4081 6.78412 27.7947 7.03312 28.0625 7.49998C28.1029 7.56701 28.1434 7.63404 28.1851 7.70311C28.8844 8.88657 29.42 10.1429 29.875 11.4375C29.904 11.5188 29.904 11.5188 29.9335 11.6018C30.9523 14.4794 31.5022 17.5081 31.8672 20.5312C31.874 20.5864 31.8809 20.6416 31.888 20.6984C31.9614 21.2963 32.0138 21.8916 32.0239 22.4941C32.0255 22.5457 32.0271 22.5972 32.0288 22.6503C32.0298 23.1397 31.7927 23.4097 31.4614 23.7466C31.4252 23.7825 31.3889 23.8184 31.3516 23.8555C31.3132 23.8936 31.2748 23.9317 31.2352 23.971C30.8822 24.3156 30.5075 24.6222 30.1121 24.9165C29.9972 25.002 29.8834 25.0887 29.7695 25.1755C29.2428 25.5734 28.6987 25.924 28.125 26.25C28.089 26.271 28.053 26.292 28.0159 26.3136C26.3416 27.2869 23.8352 28.2009 21.8625 27.8506C21.5301 27.734 21.3341 27.4542 21.125 27.1875C21.0729 27.122 21.0208 27.0564 20.9688 26.9909C20.8207 26.804 20.6739 26.6161 20.5275 26.4279C20.3835 26.2432 20.2386 26.0591 20.0938 25.875C19.9156 25.6485 19.7377 25.4218 19.5605 25.1946C19.514 25.1349 19.514 25.1349 19.4664 25.0741C19.407 24.998 19.3477 24.9218 19.2885 24.8456C19.2141 24.7505 19.1384 24.6564 19.0625 24.5625C19.0349 24.5277 19.0072 24.4929 18.9787 24.457C18.8337 24.3423 18.7528 24.3633 18.571 24.384C18.4761 24.3934 18.4761 24.3934 18.3793 24.403C18.3096 24.4105 18.2398 24.418 18.168 24.4258C17.4455 24.4908 16.7291 24.5148 16.0039 24.5156C15.9534 24.5159 15.9029 24.5162 15.8509 24.5166C15.3285 24.5194 14.8177 24.5107 14.3003 24.4343C13.5944 24.296 13.5944 24.296 12.9234 24.4572C12.666 24.6947 12.5022 24.9831 12.3365 25.2885C12.1982 25.5267 12.0221 25.7287 11.8437 25.9375C11.5185 26.331 11.2078 26.7342 10.9055 27.1456C10.6905 27.433 10.4686 27.7246 10.1255 27.8625C8.05998 28.0675 5.91818 27.3408 4.125 26.375C4.08354 26.353 4.04208 26.331 3.99936 26.3084C3.38115 25.9792 2.8079 25.6105 2.25 25.1875C2.21342 25.1599 2.17684 25.1324 2.13916 25.104C1.60741 24.7012 1.10761 24.2728 0.624999 23.8125C0.574403 23.7645 0.523808 23.7164 0.471679 23.667C0.0221423 23.2304 0.0221423 23.2304 -0.0162373 22.9394C-0.0164031 22.8963 -0.016569 22.8533 -0.0167398 22.809C-0.0170165 22.7599 -0.0172931 22.7108 -0.0175781 22.6603C-0.0170145 22.6076 -0.0164508 22.555 -0.0158701 22.5007C-0.0155053 22.4453 -0.0151406 22.39 -0.0147648 22.3329C-0.00600686 21.7342 0.0555677 21.1445 0.128905 20.5508C0.135765 20.4936 0.142626 20.4365 0.149693 20.3777C0.468302 17.7353 0.960494 15.1066 1.75 12.5625C1.77165 12.4924 1.7933 12.4223 1.81561 12.35C3.33125 7.49737 3.33125 7.49737 5.3125 6.38279C5.39894 6.33388 5.39894 6.33388 5.48714 6.28398C5.98354 6.00523 6.48556 5.74366 7 5.49998C7.04119 5.48005 7.08238 5.46012 7.12482 5.43959C8.41106 4.82046 11.1499 3.50926 12.5625 4.31248ZM5.5625 8.56248C5.45251 8.72098 5.45251 8.72098 5.36255 8.9011C5.30964 9.00201 5.30964 9.00201 5.25566 9.10496C5.21899 9.17731 5.18231 9.24966 5.14453 9.3242C5.12541 9.36157 5.1063 9.39895 5.0866 9.43745C3.13922 13.2536 2.28646 17.7525 1.9375 22C1.92993 22.0709 1.92235 22.1418 1.91455 22.2148C1.9871 22.7211 2.8988 23.2362 3.28516 23.5312C4.85716 24.7053 6.67604 25.5817 8.625 25.875C8.69308 25.8925 8.76116 25.9101 8.8313 25.9282C9.03784 25.9718 9.16993 25.9894 9.375 25.9375C9.5998 25.7325 9.75487 25.5004 9.91873 25.2458C10.0837 25.0005 10.277 24.7762 10.4639 24.5475C10.6208 24.3507 10.725 24.1723 10.8125 23.9375C10.7664 23.9265 10.7202 23.9156 10.6727 23.9043C5.85035 22.7504 5.85035 22.7504 4.46094 21.2617C4.3401 20.9816 4.32615 20.7379 4.375 20.4375C4.49918 20.1936 4.63247 20.0066 4.875 19.875C5.25728 19.77 5.52661 19.8354 5.875 20C6.01957 20.0843 6.1624 20.1698 6.30469 20.2578C9.14747 22.0111 12.6666 22.5787 15.9609 22.5742C16.0128 22.5742 16.0648 22.5741 16.1182 22.5741C19.5659 22.5673 23.1419 21.8978 26.0938 20.0351C26.4177 19.8386 26.6612 19.789 27.0391 19.8476C27.3323 19.9726 27.481 20.1495 27.625 20.4375C27.6575 20.7336 27.6579 20.9863 27.5391 21.2617C27.1377 21.6918 26.5998 21.9741 26.082 22.2422C26.02 22.2743 25.958 22.3064 25.8942 22.3395C24.408 23.0939 22.8098 23.5775 21.1875 23.9375C21.3004 24.3077 21.562 24.5698 21.808 24.859C21.9738 25.0562 22.1297 25.2428 22.248 25.4726C22.3586 25.6771 22.4346 25.803 22.625 25.9375C23.0207 26.008 23.4273 25.9002 23.8125 25.8125C23.8635 25.8014 23.9145 25.7903 23.967 25.7789C25.041 25.5395 26.0315 25.1418 27 24.625C27.0375 24.6052 27.0751 24.5854 27.1137 24.565C27.9185 24.1367 28.6504 23.5975 29.3423 23.0054C29.5 22.875 29.5 22.875 29.6694 22.7641C29.8408 22.6434 29.9457 22.5496 30.0625 22.375C30.0823 22.1629 30.0823 22.1629 30.0542 21.9282C30.0504 21.8844 30.0466 21.8407 30.0427 21.7956C30.03 21.6552 30.0153 21.5151 30 21.375C29.9953 21.3302 29.9907 21.2853 29.9859 21.2391C29.951 20.9075 29.9101 20.5768 29.8672 20.2461C29.8605 20.1942 29.8538 20.1423 29.8469 20.0888C29.3923 16.588 28.6462 13.0337 27.1094 9.83592C27.0911 9.79777 27.0728 9.75962 27.054 9.72031C26.6118 8.76991 26.6118 8.76991 25.8242 8.12498C25.7776 8.09916 25.731 8.07334 25.683 8.04674C25.5862 7.99343 25.4891 7.94073 25.3917 7.88865C25.2597 7.81768 25.1294 7.74431 24.9993 7.6699C24.0397 7.13012 23.0012 6.72639 21.9492 6.40623C21.9019 6.3918 21.8547 6.37736 21.806 6.36249C21.4178 6.25028 21.0241 6.1856 20.625 6.12498C20.5006 6.34726 20.3772 6.57005 20.2539 6.79295C20.2187 6.85591 20.1834 6.91888 20.1471 6.98375C20.1135 7.04478 20.0798 7.1058 20.0452 7.16868C19.9985 7.25264 19.9985 7.25264 19.9509 7.33828C19.8759 7.49809 19.8389 7.63858 19.8125 7.81248C19.864 7.82188 19.9155 7.83127 19.9685 7.84096C21.7444 8.16769 23.4599 8.59257 25.1328 9.28904C25.1724 9.30483 25.2119 9.32062 25.2527 9.33688C25.547 9.46496 25.692 9.61963 25.875 9.87498C25.966 10.1481 25.9919 10.4133 25.8926 10.6858C25.7617 10.9344 25.6391 11.0919 25.375 11.1875C24.8451 11.2484 24.4597 11.124 23.9844 10.9023C21.509 9.81481 18.7591 9.42375 16.0703 9.42186C15.9888 9.42179 15.9888 9.42179 15.9056 9.42173C13.1176 9.42513 10.1347 9.8122 7.60937 11.0625C7.26002 11.2276 6.92847 11.2687 6.55786 11.1438C6.36555 11.0482 6.25189 10.9402 6.12891 10.7656C6.02149 10.437 6.01778 10.1849 6.13672 9.85936C6.41071 9.44364 6.83117 9.31092 7.27734 9.1367C7.34696 9.10933 7.41657 9.08196 7.4883 9.05375C9.0103 8.4635 10.5758 8.06838 12.1875 7.81248C12.1502 7.56732 12.075 7.38496 11.9548 7.16868C11.9212 7.10765 11.8876 7.04663 11.8529 6.98375C11.8177 6.92078 11.7824 6.85782 11.7461 6.79295C11.7106 6.72878 11.6751 6.66461 11.6385 6.59849C11.5511 6.44044 11.4632 6.28262 11.375 6.12498C9.586 6.12498 6.86502 7.39943 5.5625 8.56248Z" fill="#D9D9D9"/>
<path d="M22.2383 13.1992C23.0603 13.7939 23.5967 14.6618 23.7876 15.6619C23.9195 16.791 23.7579 17.8783 23.0493 18.8059C22.9132 18.9608 22.7731 19.1067 22.625 19.25C22.5883 19.2865 22.5517 19.323 22.5139 19.3606C21.8862 19.944 21.0383 20.1666 20.1973 20.1426C19.3589 20.0679 18.5708 19.6795 18 19.0625C17.6708 18.6628 17.437 18.2316 17.25 17.75C17.2299 17.7005 17.2099 17.6509 17.1892 17.5999C16.8568 16.6212 17.0207 15.4811 17.4375 14.5625C17.877 13.7269 18.546 13.1099 19.4414 12.7852C20.4039 12.5208 21.4072 12.6368 22.2383 13.1992ZM19.3325 15.1858C18.971 15.741 18.9074 16.3295 19.0317 16.9781C19.1802 17.4782 19.4355 17.8029 19.8833 18.0659C20.184 18.2182 20.4944 18.2452 20.8159 18.1492C21.2859 17.9416 21.5841 17.5792 21.7773 17.1094C21.9521 16.5623 21.9446 16.0441 21.7036 15.52C21.4993 15.1432 21.2925 14.8371 20.8877 14.6641C20.2675 14.4882 19.7229 14.6813 19.3325 15.1858Z" fill="#D9D9D9"/>
<path d="M13.469 13.2559C14.2616 13.8613 14.7954 14.7553 14.9375 15.75C15.018 16.9862 14.8336 18.0735 14.0117 19.0547C13.4343 19.6586 12.6613 20.0789 11.8181 20.1377C10.8331 20.1524 10.0436 19.8847 9.32787 19.2024C9.25838 19.1332 9.25838 19.1332 9.18749 19.0625C9.13444 19.0117 9.13444 19.0117 9.08031 18.9598C8.40505 18.2523 8.15354 17.2338 8.16124 16.2824C8.19693 15.2621 8.56821 14.3221 9.28099 13.5804C10.469 12.4961 12.1318 12.3398 13.469 13.2559ZM10.5117 15.1368C10.1527 15.64 10.0559 16.1363 10.125 16.75C10.2438 17.2805 10.4864 17.7069 10.9343 18.0237C11.22 18.1848 11.4878 18.25 11.8125 18.1875C12.3008 18.0181 12.6175 17.6939 12.875 17.25C13.0861 16.7433 13.0868 16.111 12.8984 15.5977C12.7016 15.1787 12.4427 14.8559 12.0127 14.6663C11.4085 14.4853 10.9071 14.6636 10.5117 15.1368Z" fill="#D9D9D9"/>
</g>
<defs>
<clipPath id="clip0_31_24">
<rect width="32" height="32" fill="white"/>
</clipPath>
</defs>
</svg>
