<svg width="26" height="28" viewBox="0 0 26 28" fill="none" xmlns="http://www.w3.org/2000/svg">
<path d="M10 23.3334C4.26667 25.2001 4.26667 20.0001 2 19.3334M18 26.0001V21.3334C18 20.0001 18.1333 19.4667 17.3333 18.6667C21.0667 18.2667 24.6667 16.8001 24.6667 10.6667C24.665 9.07334 24.0434 7.54313 22.9333 6.40006C23.454 5.01601 23.406 3.48223 22.8 2.13339C22.8 2.13339 21.3333 1.73339 18.1333 3.86672C15.423 3.16084 12.577 3.16084 9.86667 3.86672C6.66667 1.73339 5.2 2.13339 5.2 2.13339C4.59397 3.48223 4.54604 5.01601 5.06667 6.40006C3.9566 7.54313 3.33496 9.07334 3.33333 10.6667C3.33333 16.8001 6.93333 18.2667 10.6667 18.6667C9.86667 19.4667 9.86667 20.2667 10 21.3334V26.0001" stroke="#D9D9D9" stroke-width="2.5" stroke-linecap="round" stroke-linejoin="round"/>
</svg>
