<?xml version="1.0" encoding="UTF-8"?><svg width="542px" height="619px" viewBox="0 0 542 619" version="1.1" xmlns="http://www.w3.org/2000/svg" xmlns:xlink="http://www.w3.org/1999/xlink"><title>Gosub Logo</title><defs><linearGradient x1="50.0005721%" y1="-0.0008085447%" x2="50.0005721%" y2="99.9998868%" id="gr-norm"><stop stop-color="#60F3EC" offset="0%"></stop><stop stop-color="#5FEFEC" offset="17.67%"></stop><stop stop-color="#5AE5EC" offset="33.52%"></stop><stop stop-color="#52D2EB" offset="48.67%"></stop><stop stop-color="#48B8EA" offset="63.4%"></stop><stop stop-color="#3A97E9" offset="77.82%"></stop><stop stop-color="#296FE8" offset="91.81%"></stop><stop stop-color="#1E54E7" offset="100%"></stop></linearGradient><linearGradient x1="50%" y1="0%" x2="50%" y2="100%" id="gr-dark"><stop stop-color="#5FF2EC" offset="0%"></stop><stop stop-color="#2461E7" offset="100%"></stop></linearGradient><path d="M405,125.3225 L405,336.1625 C405,343.2725 401.2,349.8425 395.05,353.4025 L212.45,458.8225 C206.29,462.3825 198.7,462.3825 192.55,458.8225 L9.95,353.4025 C3.79,349.8425 -1.42108547e-14,343.2725 -1.42108547e-14,336.1625 L-1.42108547e-14,125.3225 C-1.42108547e-14,118.2125 3.79,111.6425 9.95,108.0825 L192.55,2.6625 C198.7,-0.8875 206.29,-0.8875 212.45,2.6625 L395.05,108.0825 C401.2,111.6425 405,118.2125 405,125.3225 Z" id="p-ds"></path><filter x="-3.2%" y="-2.8%" width="106.4%" height="105.6%" filterUnits="objectBoundingBox" id="fltr-ds"><feMorphology radius="12" operator="erode" in="SourceAlpha" result="shadowSpreadInner1"></feMorphology><feGaussianBlur stdDeviation="6.5" in="shadowSpreadInner1" result="shadowBlurInner1"></feGaussianBlur><feOffset dx="0" dy="1" in="shadowBlurInner1" result="shadowOffsetInner1"></feOffset><feComposite in="shadowOffsetInner1" in2="SourceAlpha" operator="arithmetic" k2="-1" k3="1" result="shadowInnerInner1"></feComposite><feColorMatrix values="0 0 0 0 0  0 0 0 0 0  0 0 0 0 0 0 0 0 0.5 0" type="matrix" in="shadowInnerInner1"></feColorMatrix></filter></defs><g id="logo" stroke="none" stroke-width="1" fill="none" fill-rule="evenodd"><g id="hexagon" fill-rule="nonzero"><g id="borders"><path d="M541.37,166.335 L541.37,452.045 C541.37,460.265 536.98,467.855 529.87,471.955 L282.43,614.815 C275.31,618.925 266.54,618.925 259.43,614.815 L12,471.965 C4.88,467.865 0.5,460.265 0.5,452.055 L0.5,166.335 C0.5,158.115 4.88,150.525 12,146.425 L259.43,3.565 C266.54,-0.535 275.31,-0.535 282.43,3.565 L529.86,146.425 C536.97,150.525 541.37,158.115 541.37,166.335 Z" id="Path" fill="#1A0639"></path><path d="M270.93,618.395 C266.87,618.395 262.81,617.345 259.18,615.255 L11.75,472.395 C4.5,468.215 0,460.425 0,452.045 L0,166.335 C0,157.965 4.5,150.165 11.75,145.985 L259.18,3.135 C266.42,-1.045 275.43,-1.045 282.68,3.135 L530.11,145.995 C537.36,150.175 541.86,157.975 541.86,166.345 L541.86,452.055 C541.86,460.425 537.36,468.215 530.11,472.405 L282.68,615.255 C279.06,617.345 274.99,618.395 270.93,618.395 Z M270.93,0.995 C267.04,0.995 263.15,1.995 259.68,3.995 L12.25,146.855 C5.31,150.855 1,158.315 1,166.335 L1,452.045 C1,460.065 5.31,467.525 12.25,471.525 L259.68,614.385 C266.61,618.395 275.23,618.395 282.18,614.385 L529.61,471.525 C536.55,467.515 540.86,460.055 540.86,452.045 L540.86,166.335 C540.86,158.325 536.55,150.855 529.61,146.855 L282.18,3.995 C278.71,1.995 274.82,0.995 270.93,0.995 Z" id="Shape" fill="url(#gr-norm)"></path><path d="M504.91,185.595 L504.91,432.795 C504.91,439.905 501.11,446.475 494.96,450.025 L280.88,573.625 C274.72,577.185 267.13,577.185 260.98,573.625 L46.9,450.025 C40.74,446.475 36.95,439.905 36.95,432.795 L36.95,185.595 C36.95,178.485 40.74,171.915 46.9,168.365 L260.98,44.765 C267.13,41.215 274.72,41.215 280.88,44.765 L494.96,168.365 C501.11,171.915 504.91,178.485 504.91,185.595 Z" id="Path" fill="url(#gr-norm)"></path></g><g id="drop-shadow" transform="translate(68.430000, 78.452500)"><path d="M405,125.3225 L405,336.1625 C405,343.2725 401.2,349.8425 395.05,353.4025 L212.45,458.8225 C206.29,462.3825 198.7,462.3825 192.55,458.8225 L9.95,353.4025 C3.79,349.8425 -1.42108547e-14,343.2725 -1.42108547e-14,336.1625 L-1.42108547e-14,125.3225 C-1.42108547e-14,118.2125 3.79,111.6425 9.95,108.0825 L192.55,2.6625 C198.7,-0.8875 206.29,-0.8875 212.45,2.6625 L395.05,108.0825 C401.2,111.6425 405,118.2125 405,125.3225 Z" id="Path" fill="url(#gr-norm)"></path><g opacity="0.75" id="Path"><g><use fill="url(#gr-dark)" xlink:href="#p-ds"></use><use fill="black" fill-opacity="1" filter="url(#fltr-ds)" xlink:href="#p-ds"></use></g></g></g><g id="submarine"><path d="M113.53,247.095 L113.53,365.235 L141.84,342.745 L161.3,354.105 C161.3,354.105 159.32,358.475 159.32,366.275 C159.32,374.075 167.13,409.735 219.79,409.735 C272.45,409.735 356.33,409.735 356.33,409.735 C356.33,409.735 413.71,408.975 413.71,364.235 C413.71,364.235 413.54,353.835 410.21,347.025 C410.21,347.025 428.33,332.145 428.33,302.785 C428.33,273.425 399.67,241.275 361.92,241.275 L337.45,241.275 L337.45,210.375 C337.45,199.065 328.28,189.895 316.97,189.895 L298.77,189.895 L298.77,165.205 C298.77,162.355 297.69,159.605 295.74,157.525 L278.77,139.315 C274.79,135.045 268.13,134.715 263.75,138.585 L262.76,139.455 C257.96,143.685 257.89,151.145 262.6,155.475 L276.97,168.695 C278.12,169.755 278.78,171.255 278.78,172.815 L278.78,190.365 L253.41,190.365 C242.1,190.365 232.93,199.535 232.93,210.845 L232.93,240.935 L203.8,240.935 C199.38,240.935 195.04,242.045 191.16,244.145 L141.15,271.335 L113.53,247.095 Z" id="Path" fill="#1A0639"></path><path d="M113.53,260.415 L113.53,378.555 L141.84,356.065 L161.3,367.425 C161.3,367.425 159.32,371.795 159.32,379.595 C159.32,387.405 167.13,423.055 219.79,423.055 C272.45,423.055 356.33,423.055 356.33,423.055 C356.33,423.055 413.71,422.295 413.71,377.555 C413.71,377.555 413.54,367.155 410.21,360.345 C410.21,360.345 428.33,345.465 428.33,316.105 C428.33,286.745 399.67,254.595 361.92,254.595 L337.45,254.595 L337.45,223.695 C337.45,212.385 328.28,203.215 316.97,203.215 L298.77,203.215 L298.77,178.525 C298.77,175.675 297.69,172.925 295.74,170.845 L278.77,152.635 C274.79,148.365 268.13,148.035 263.75,151.905 L262.76,152.775 C257.96,157.005 257.89,164.465 262.6,168.795 L276.98,181.995 C278.13,183.055 278.79,184.555 278.79,186.115 L278.79,203.665 L253.42,203.665 C242.11,203.665 232.94,212.835 232.94,224.145 L232.94,254.235 L203.8,254.235 C199.38,254.235 195.04,255.345 191.16,257.445 L141.15,284.635 L113.53,260.415 Z" id="Path" fill="#1A0639" opacity="0.3"></path><path d="M394.66,362.845 C394.66,370.815 389.03,378.015 381.4,383.235 C373.78,388.455 364.17,391.685 356.21,391.685 L217.28,391.685 C201.35,391.685 178.13,378.775 178.13,362.845 L394.66,362.845 Z" id="Path" fill="#2382EB"></path><path d="M390.16,362.845 C387.87,365.895 384.84,368.645 381.4,370.995 C373.78,376.215 364.17,379.445 356.21,379.445 L217.28,379.445 C205.73,379.445 190.34,372.655 182.75,362.845 L390.16,362.845 L390.16,362.845 Z" id="Path" fill="#60E5ED"></path><path d="M408.75,301.945 L408.75,302.205 C408.75,325.175 390.13,343.795 367.16,343.795 L196.15,343.795 C191.77,343.795 187.45,342.775 183.53,340.825 L136.83,317.465 L136.83,304.225 C142.21,308.255 154.27,314.755 175.98,314.755 C207.43,314.755 378.35,314.755 378.35,314.755 C378.35,314.755 397.41,316.655 408.75,301.945 Z" id="Path" fill="#2382EB"></path><path d="M408.75,301.945 C397.41,316.655 378.35,314.755 378.35,314.755 C378.35,314.755 207.43,314.755 175.98,314.755 C154.27,314.755 142.21,308.255 136.83,304.225 L136.83,294.635 L197.18,263.715 C201.16,261.675 205.57,260.615 210.04,260.615 L367.16,260.615 C378.64,260.615 389.04,265.275 396.57,272.795 C402.81,279.035 407.07,287.225 408.34,296.385 C408.6,298.205 408.74,300.055 408.75,301.945 Z" id="Path" fill="#60E5ED"></path><path d="M318,212.325 L318,240.925 L252.4,240.925 L252.4,212.325 C252.4,210.485 253.89,209.005 255.72,209.005 L314.68,209.005 C316.51,209.005 318,210.485 318,212.325 Z" id="Path" fill="#60E5ED"></path><circle id="Oval" fill="#1A0639" cx="240.87" cy="302.205" r="16.08"></circle><circle id="Oval" fill="#1A0639" cx="281.95" cy="302.205" r="16.08"></circle><circle id="Oval" fill="#1A0639" cx="323.03" cy="302.205" r="16.08"></circle><circle id="Oval" fill="#1A0639" cx="364.11" cy="302.205" r="16.08"></circle><path d="M68.43,414.615 C68.54,415.845 68.78,417.065 69.11,418.245 C69.44,419.425 69.82,420.595 70.34,421.695 C71.33,423.915 72.64,425.975 74.33,427.665 L75.63,428.875 L77.04,429.945 C78.04,430.575 79.04,431.175 80.17,431.755 L86.69,435.305 C91.04,437.655 95.35,440.105 99.67,442.515 L112.57,449.865 L125.39,457.355 C129.63,459.905 133.91,462.395 138.12,464.995 C146.58,470.135 154.99,475.365 163.25,480.855 C154.37,476.445 145.63,471.785 136.95,467.025 C132.59,464.675 128.3,462.225 123.97,459.815 L111.07,452.465 L98.25,444.975 C94.01,442.435 89.73,439.925 85.52,437.335 L79.19,433.465 C78.15,432.845 77.07,432.105 76.02,431.345 L74.56,430.075 L73.24,428.665 C71.58,426.695 70.36,424.405 69.57,422.015 C68.78,419.605 68.36,417.095 68.43,414.615 Z" id="Path" fill="url(#gr-norm)"></path><path d="M471.54,423.055 C470.66,425.205 469.32,427.175 467.71,428.875 C466.12,430.595 464.09,431.945 462.1,433.095 L450.2,440.355 C442.24,445.155 434.28,449.935 426.28,454.665 C418.3,459.425 410.27,464.105 402.27,468.815 L378.17,482.825 L354,496.695 C345.91,501.265 337.85,505.885 329.74,510.415 C313.55,519.535 297.26,528.485 280.88,537.275 C296.68,527.475 312.58,517.855 328.57,508.395 C336.55,503.625 344.58,498.965 352.58,494.245 L376.68,480.245 L400.86,466.385 C408.95,461.815 417.01,457.195 425.12,452.665 C433.22,448.105 441.34,443.595 449.47,439.105 L461.71,432.425 C462.73,431.865 463.76,431.335 464.7,430.705 C465.66,430.085 466.55,429.355 467.39,428.575 C469.07,426.985 470.52,425.135 471.54,423.055 Z" id="Path" fill="url(#gr-norm)"></path><path d="M270.93,78.445 C269.41,78.625 267.9,78.925 266.43,79.335 C264.96,79.735 263.53,80.255 262.2,80.945 C259.61,82.455 256.99,84.165 254.39,85.755 C249.16,88.975 243.93,92.185 238.66,95.335 C233.41,98.525 228.11,101.615 222.84,104.755 L206.94,114.035 L190.96,123.175 C185.6,126.175 180.28,129.215 174.89,132.165 C164.15,138.115 153.36,143.965 142.42,149.565 C152.74,142.885 163.2,136.465 173.72,130.145 C178.96,126.955 184.27,123.865 189.54,120.725 L205.44,111.455 L221.43,102.325 C226.79,99.325 232.12,96.285 237.5,93.335 C242.86,90.355 248.26,87.425 253.66,84.505 L257.72,82.335 L259.75,81.255 C260.42,80.895 261.11,80.525 261.84,80.215 C264.76,78.985 267.86,78.525 270.93,78.445 Z" id="Path" fill="#F2F2F2"></path><path d="M252.4,217.385 L252.23,212.295 C252.19,211.405 252.52,210.485 253.13,209.795 C253.74,209.105 254.64,208.655 255.59,208.585 C259.01,208.415 262.38,208.315 265.78,208.235 C272.56,208.055 279.34,208.005 286.13,207.985 C292.91,208.015 299.69,208.055 306.48,208.245 L311.57,208.395 L314.11,208.485 L314.75,208.515 C314.99,208.525 315.23,208.565 315.46,208.625 C315.93,208.745 316.37,208.955 316.75,209.235 C317.51,209.795 318.03,210.645 318.18,211.555 C318.26,212.015 318.22,212.465 318.21,212.875 L318.18,214.145 L318,219.235 L317.82,214.145 L317.79,212.875 C317.78,212.445 317.78,212.035 317.67,211.665 C317.47,210.905 316.97,210.255 316.32,209.875 C316,209.685 315.64,209.555 315.28,209.495 C314.93,209.435 314.55,209.475 314.11,209.485 L311.57,209.575 L306.48,209.725 C299.7,209.915 292.92,209.955 286.13,209.985 C279.35,209.965 272.57,209.925 265.78,209.735 C262.39,209.655 258.98,209.545 255.62,209.395 C254.11,209.315 252.62,210.635 252.56,212.285 L252.4,217.385 Z" id="Path" fill="#F2F2F2"></path><path d="M408.75,301.945 C408.63,296.595 407.5,291.295 405.42,286.405 C403.34,281.515 400.29,277.065 396.54,273.345 C392.81,269.605 388.35,266.605 383.49,264.575 C378.64,262.535 373.39,261.465 368.15,261.435 L303.99,261.605 C282.6,261.505 261.21,261.555 239.81,261.305 L223.76,261.155 L215.74,261.055 L211.73,260.995 C210.39,260.965 209.08,260.965 207.75,261.065 C206.43,261.155 205.1,261.295 203.81,261.555 C202.51,261.775 201.3,262.315 200.08,262.855 C197.64,263.935 195.23,265.095 192.82,266.255 L178.42,273.335 C183.13,270.805 187.87,268.315 192.67,265.945 C195.07,264.755 197.46,263.575 199.9,262.455 C201.11,261.905 202.37,261.335 203.7,261.055 C205.02,260.745 206.36,260.565 207.7,260.435 C209.03,260.295 210.4,260.245 211.73,260.245 L215.74,260.185 L223.76,260.085 L239.8,259.935 C261.19,259.675 282.59,259.725 303.98,259.635 C314.68,259.595 325.37,259.675 336.07,259.695 C346.77,259.745 357.45,259.705 368.18,259.845 C373.63,259.985 379.04,261.185 384.01,263.385 C388.98,265.575 393.51,268.745 397.26,272.645 C404.78,280.435 409.04,291.225 408.75,301.945 Z" id="Path" fill="#F2F2F2"></path><path d="M178.13,362.845 C187.15,362.615 196.17,362.525 205.2,362.355 L232.27,362.075 C250.31,361.915 268.36,361.925 286.4,361.845 C304.44,361.925 322.49,361.915 340.53,362.075 L367.6,362.355 C376.62,362.525 385.64,362.615 394.67,362.845 C385.65,363.075 376.63,363.165 367.6,363.335 L340.53,363.615 C322.49,363.775 304.44,363.765 286.4,363.845 C268.36,363.765 250.31,363.775 232.27,363.615 L205.2,363.335 C196.18,363.165 187.16,363.065 178.13,362.845 Z" id="Path" fill="#F2F2F2"></path></g><g id="stars"><path d="M351.41,141.965 C351.41,148.385 346.2,153.595 339.78,153.595 C346.2,153.595 351.41,158.805 351.41,165.225 C351.41,158.805 356.62,153.595 363.04,153.595 C356.62,153.595 351.41,148.385 351.41,141.965 Z" id="Path" fill="#1A0639"></path><path d="M439.95,390.715 C439.95,397.135 434.74,402.345 428.32,402.345 C434.74,402.345 439.95,407.555 439.95,413.975 C439.95,407.555 445.16,402.345 451.58,402.345 C445.16,402.345 439.95,397.135 439.95,390.715 Z" id="Path" fill="#1A0639"></path><path d="M95.55,206.135 C95.55,212.555 90.34,217.765 83.92,217.765 C90.34,217.765 95.55,222.975 95.55,229.395 C95.55,222.975 100.76,217.765 107.18,217.765 C100.76,217.765 95.55,212.555 95.55,206.135 Z" id="Path" fill="#1A0639"></path><path d="M438.09,197.465 C438.09,206.275 430.94,213.425 422.13,213.425 C430.94,213.425 438.09,220.575 438.09,229.385 C438.09,220.565 445.24,213.425 454.05,213.425 C445.24,213.425 438.09,206.275 438.09,197.465 Z" id="Path" fill="#1A0639"></path><path d="M380.19,428.865 C380.19,437.675 373.04,444.825 364.23,444.825 C373.04,444.825 380.19,451.975 380.19,460.785 C380.19,451.965 387.34,444.825 396.15,444.825 C387.34,444.825 380.19,437.675 380.19,428.865 Z" id="Path" fill="#1A0639"></path><path d="M166.47,183.835 C166.47,197.115 155.7,207.895 142.41,207.895 C155.69,207.895 166.47,218.665 166.47,231.955 C166.47,218.665 177.24,207.895 190.53,207.895 C177.24,207.895 166.47,197.125 166.47,183.835 Z" id="Path" fill="#1A0639"></path><path d="M255.62,449.935 C255.62,463.985 244.22,475.385 230.17,475.385 C244.22,475.385 255.62,486.785 255.62,500.835 C255.62,486.775 267.02,475.385 281.07,475.385 C267.01,475.385 255.62,463.995 255.62,449.935 Z" id="Path" fill="#1A0639"></path><path d="M97.65,399.995 C97.65,406.415 92.44,411.625 86.02,411.625 C92.44,411.625 97.65,416.835 97.65,423.255 C97.65,416.835 102.86,411.625 109.28,411.625 C102.85,411.615 97.65,406.415 97.65,399.995 Z" id="Path" fill="#1A0639"></path><path d="M153.92,433.195 C153.92,439.615 148.71,444.825 142.29,444.825 C148.71,444.825 153.92,450.035 153.92,456.455 C153.92,450.035 159.13,444.825 165.55,444.825 C159.12,444.825 153.92,439.615 153.92,433.195 Z" id="Path" fill="#1A0639"></path></g></g></g></svg>