<svg width="1645" height="1552" viewBox="0 0 1645 1552" fill="none" xmlns="http://www.w3.org/2000/svg">
<g filter="url(#filter0_f_51_43)">
<path d="M575.182 466.122C670.403 256.187 917.781 163.192 1127.72 258.413L1186.23 284.954C1396.17 380.175 1489.16 627.554 1393.94 837.489L1368.17 894.303C1272.95 1104.24 1025.57 1197.23 815.638 1102.01L757.122 1075.47C547.187 980.25 454.192 732.872 549.413 522.936L575.182 466.122Z" fill="url(#paint0_radial_51_43)" fill-opacity="0.7"/>
<path d="M1127.53 258.83L1186.04 285.371C1395.75 380.488 1488.64 627.595 1393.53 837.3L1367.76 894.114C1272.64 1103.82 1025.53 1196.71 815.827 1101.6L757.311 1075.05C547.606 979.938 454.713 732.831 549.83 523.125L575.599 466.312C670.715 256.606 917.822 163.713 1127.53 258.83Z" stroke="#00E224" stroke-opacity="0.83" stroke-width="0.915825"/>
</g>
<g style="mix-blend-mode:hue" filter="url(#filter1_f_51_43)">
<path d="M1040.02 1112.48C854.466 1126.37 692.731 986.51 678.838 800.957V800.957C664.945 615.404 804.051 453.021 989.604 439.128V439.128C1175.16 425.235 1336.89 565.093 1350.78 750.647V750.647C1364.68 936.2 1225.57 1098.58 1040.02 1112.48V1112.48Z" fill="url(#paint1_radial_51_43)" fill-opacity="0.7"/>
<path d="M1350.4 750.675C1364.28 936.017 1225.33 1098.21 1039.99 1112.09C854.651 1125.97 693.1 986.27 679.223 800.928C665.346 615.586 804.293 453.39 989.633 439.513C1174.97 425.636 1336.52 565.334 1350.4 750.675Z" stroke="#00E224" stroke-opacity="0.83" stroke-width="0.771644"/>
</g>
<g style="mix-blend-mode:lighten" filter="url(#filter2_f_51_43)">
<rect x="383.977" y="505.324" width="777.176" height="776.272" rx="388.136" transform="rotate(-2.76038 383.977 505.324)" stroke="#00E224" stroke-opacity="0.83" stroke-width="0.674645"/>
</g>
<g style="mix-blend-mode:lighten" filter="url(#filter3_f_51_43)">
<rect x="413.424" y="742.612" width="625.484" height="624.756" rx="312.378" transform="rotate(-40.357 413.424 742.612)" fill="url(#paint2_radial_51_43)" fill-opacity="0.7"/>
<rect x="413.9" y="742.651" width="624.809" height="624.082" rx="312.041" transform="rotate(-40.357 413.9 742.651)" stroke="#00E224" stroke-opacity="0.83" stroke-width="0.674645"/>
</g>
<g style="mix-blend-mode:overlay" filter="url(#filter4_f_51_43)">
<path d="M781.041 313.684C839.114 193.116 984.387 142.672 1104.96 200.744V200.744C1225.52 258.817 1276.64 403.854 1218.57 524.423V524.423C1160.5 644.992 1015.22 695.436 894.655 637.363V637.363C774.086 579.29 722.969 434.253 781.041 313.684V313.684Z" fill="url(#paint3_radial_51_43)" fill-opacity="0.7"/>
<path d="M894.798 637.067C774.392 579.072 723.344 434.231 781.337 313.827C839.331 193.423 984.407 143.046 1104.81 201.041C1225.22 259.035 1276.27 403.876 1218.27 524.28C1160.28 644.685 1015.2 695.061 894.798 637.067Z" stroke="#00E224" stroke-opacity="0.83" stroke-width="0.657321"/>
</g>
<g style="mix-blend-mode:lighten" filter="url(#filter5_f_51_43)">
<path d="M829.064 297.842C946.716 281.301 1055.56 363.712 1072.11 481.365V481.365C1088.65 599.018 1006.74 708.247 889.088 724.788V724.788C771.435 741.329 662.587 658.918 646.047 541.265V541.265C629.506 423.612 711.411 314.383 829.064 297.842V297.842Z" fill="url(#paint4_radial_51_43)" fill-opacity="0.7"/>
<path d="M646.423 541.212C629.912 423.766 711.673 314.73 829.117 298.219C946.56 281.707 1055.22 363.972 1071.73 481.418C1088.24 598.864 1006.48 707.9 889.035 724.411C771.591 740.923 662.935 658.658 646.423 541.212Z" stroke="#00E224" stroke-opacity="0.83" stroke-width="0.760943"/>
</g>
<g style="mix-blend-mode:overlay" filter="url(#filter6_f_51_43)">
<path d="M1028.82 1269.35C911.058 1375.63 729.033 1365.87 622.753 1248.11V1248.11C516.473 1130.35 525.382 948.278 643.146 841.998V841.998C760.91 735.718 942.934 745.472 1049.21 863.236V863.236C1155.49 981 1146.59 1163.07 1028.82 1269.35V1269.35Z" fill="url(#paint5_radial_51_43)" fill-opacity="0.7"/>
<path d="M1048.93 863.497C1155.06 981.102 1146.16 1162.92 1028.56 1269.06C910.957 1375.19 729.179 1365.45 623.042 1247.85C516.906 1130.24 525.803 948.422 643.407 842.287C761.01 736.152 942.788 745.892 1048.93 863.497Z" stroke="#00E224" stroke-opacity="0.83" stroke-width="0.77916"/>
</g>
<g filter="url(#filter7_f_51_43)">
<path d="M886.546 713.764C909.375 820.56 840.902 925.728 734.106 948.556V948.556C627.309 971.385 521.825 903.401 498.996 796.605V796.605C476.168 689.808 544.64 584.64 651.437 561.812V561.812C758.233 538.983 863.718 606.967 886.546 713.764V713.764Z" fill="url(#paint6_radial_51_43)" fill-opacity="0.7"/>
<path d="M886.546 713.764C909.375 820.56 840.902 925.728 734.106 948.556V948.556C627.309 971.385 521.825 903.401 498.996 796.605V796.605C476.168 689.808 544.64 584.64 651.437 561.812V561.812C758.233 538.983 863.718 606.967 886.546 713.764V713.764Z" stroke="#00E224" stroke-opacity="0.83" stroke-width="93.776"/>
</g>
<defs>
<filter id="filter0_f_51_43" x="298.814" y="7.81412" width="1345.73" height="1344.8" filterUnits="userSpaceOnUse" color-interpolation-filters="sRGB">
<feFlood flood-opacity="0" result="BackgroundImageFix"/>
<feBlend mode="normal" in="SourceGraphic" in2="BackgroundImageFix" result="shape"/>
<feGaussianBlur stdDeviation="106.611" result="effect1_foregroundBlur_51_43"/>
</filter>
<filter id="filter1_f_51_43" x="471.197" y="231.492" width="1087.23" height="1088.62" filterUnits="userSpaceOnUse" color-interpolation-filters="sRGB">
<feFlood flood-opacity="0" result="BackgroundImageFix"/>
<feBlend mode="normal" in="SourceGraphic" in2="BackgroundImageFix" result="shape"/>
<feGaussianBlur stdDeviation="103.342" result="effect1_foregroundBlur_51_43"/>
</filter>
<filter id="filter2_f_51_43" x="199.959" y="283.899" width="1181.69" height="1180.79" filterUnits="userSpaceOnUse" color-interpolation-filters="sRGB">
<feFlood flood-opacity="0" result="BackgroundImageFix"/>
<feBlend mode="normal" in="SourceGraphic" in2="BackgroundImageFix" result="shape"/>
<feGaussianBlur stdDeviation="100.958" result="effect1_foregroundBlur_51_43"/>
</filter>
<filter id="filter3_f_51_43" x="339.561" y="263.738" width="1028.92" height="1028.8" filterUnits="userSpaceOnUse" color-interpolation-filters="sRGB">
<feFlood flood-opacity="0" result="BackgroundImageFix"/>
<feBlend mode="normal" in="SourceGraphic" in2="BackgroundImageFix" result="shape"/>
<feGaussianBlur stdDeviation="100.958" result="effect1_foregroundBlur_51_43"/>
</filter>
<filter id="filter4_f_51_43" x="581.006" y="0.579697" width="837.598" height="836.948" filterUnits="userSpaceOnUse" color-interpolation-filters="sRGB">
<feFlood flood-opacity="0" result="BackgroundImageFix"/>
<feBlend mode="normal" in="SourceGraphic" in2="BackgroundImageFix" result="shape"/>
<feGaussianBlur stdDeviation="88.0316" result="effect1_foregroundBlur_51_43"/>
</filter>
<filter id="filter5_f_51_43" x="440.105" y="91.9112" width="837.942" height="838.808" filterUnits="userSpaceOnUse" color-interpolation-filters="sRGB">
<feFlood flood-opacity="0" result="BackgroundImageFix"/>
<feBlend mode="normal" in="SourceGraphic" in2="BackgroundImageFix" result="shape"/>
<feGaussianBlur stdDeviation="101.909" result="effect1_foregroundBlur_51_43"/>
</filter>
<filter id="filter6_f_51_43" x="339.876" y="559.501" width="992.215" height="992.344" filterUnits="userSpaceOnUse" color-interpolation-filters="sRGB">
<feFlood flood-opacity="0" result="BackgroundImageFix"/>
<feBlend mode="normal" in="SourceGraphic" in2="BackgroundImageFix" result="shape"/>
<feGaussianBlur stdDeviation="104.349" result="effect1_foregroundBlur_51_43"/>
</filter>
<filter id="filter7_f_51_43" x="0.77301" y="63.5707" width="1384" height="1383.23" filterUnits="userSpaceOnUse" color-interpolation-filters="sRGB">
<feFlood flood-opacity="0" result="BackgroundImageFix"/>
<feBlend mode="normal" in="SourceGraphic" in2="BackgroundImageFix" result="shape"/>
<feGaussianBlur stdDeviation="223.466" result="effect1_foregroundBlur_51_43"/>
</filter>
<radialGradient id="paint0_radial_51_43" cx="0" cy="0" r="1" gradientUnits="userSpaceOnUse" gradientTransform="translate(957.687 519.461) rotate(106.747) scale(594.497 595.736)">
<stop stop-color="#4BD4FF"/>
<stop offset="1" stop-color="#D04BFF" stop-opacity="0"/>
</radialGradient>
<radialGradient id="paint1_radial_51_43" cx="0" cy="0" r="1" gradientUnits="userSpaceOnUse" gradientTransform="translate(1071.91 905.709) rotate(-29.0752) scale(319.088 319.752)">
<stop stop-color="#C7BEFF"/>
<stop offset="1" stop-color="#9BFFAB"/>
</radialGradient>
<radialGradient id="paint2_radial_51_43" cx="0" cy="0" r="1" gradientUnits="userSpaceOnUse" gradientTransform="translate(851.114 915.003) rotate(75.3715) scale(233.857 192.967)">
<stop stop-color="#64FFFF"/>
<stop offset="0.572917" stop-color="#00FFC2" stop-opacity="0.58"/>
<stop offset="1" stop-color="#00FFC2" stop-opacity="0"/>
</radialGradient>
<radialGradient id="paint3_radial_51_43" cx="0" cy="0" r="1" gradientUnits="userSpaceOnUse" gradientTransform="translate(898.359 407.901) rotate(90.9248) scale(229.492 229.97)">
<stop offset="0.197917" stop-color="#5FFF37"/>
<stop offset="1" stop-color="#FFFAE1" stop-opacity="0.42"/>
</radialGradient>
<radialGradient id="paint4_radial_51_43" cx="0" cy="0" r="1" gradientUnits="userSpaceOnUse" gradientTransform="translate(859.076 511.315) rotate(171.997) scale(215.124 215.572)">
<stop stop-color="#7E5EFF"/>
<stop offset="1" stop-color="#CD03FF" stop-opacity="0.6"/>
</radialGradient>
<radialGradient id="paint5_radial_51_43" cx="0" cy="0" r="1" gradientUnits="userSpaceOnUse" gradientTransform="translate(942.308 1113.38) rotate(-66.8591) scale(272.03 272.596)">
<stop stop-color="#1B07FF"/>
<stop offset="1" stop-color="#98ECFF"/>
</radialGradient>
<radialGradient id="paint6_radial_51_43" cx="0" cy="0" r="1" gradientUnits="userSpaceOnUse" gradientTransform="translate(778.922 740.607) rotate(-102.665) scale(860.917 862.71)">
<stop stop-color="#5AE9FD"/>
<stop offset="1" stop-color="#5AE9FD" stop-opacity="0"/>
</radialGradient>
</defs>
</svg>
