<svg width="32" height="32" viewBox="0 0 32 32" fill="none" xmlns="http://www.w3.org/2000/svg">
<g clip-path="url(#clip0_31_31)">
<path d="M8.66665 4H23.3333C25.1 4 26.6666 5.33333 26.6666 7.33333C26.6666 10 24.3933 11.6853 24 12L18 17.3333L20.6666 10.6667H8.66665C7.78259 10.6667 6.93475 10.3155 6.30962 9.69036C5.6845 9.06523 5.33331 8.21739 5.33331 7.33333C5.33331 6.44928 5.6845 5.60143 6.30962 4.97631C6.93475 4.35119 7.78259 4 8.66665 4Z" stroke="#D9D9D9" stroke-width="2.5" stroke-linecap="round" stroke-linejoin="round"/>
<path d="M23.3333 28H8.66665C6.89998 28 5.33331 26.6666 5.33331 24.6666C5.33331 22 7.60665 20.3146 7.99998 20L14 14.6666L11.3333 21.3333H23.3333C24.2174 21.3333 25.0652 21.6845 25.6903 22.3096C26.3155 22.9347 26.6666 23.7826 26.6666 24.6666C26.6666 25.5507 26.3155 26.3985 25.6903 27.0236C25.0652 27.6488 24.2174 28 23.3333 28Z" stroke="#D9D9D9" stroke-width="2.5" stroke-linecap="round" stroke-linejoin="round"/>
</g>
<defs>
<clipPath id="clip0_31_31">
<rect width="32" height="32" fill="white"/>
</clipPath>
</defs>
</svg>
